<?xml version="1.0" encoding="UTF-8" standalone="no"?><!-- Generator: Gravit.io --><svg xmlns="http://www.w3.org/2000/svg" xmlns:xlink="http://www.w3.org/1999/xlink" style="isolation:isolate" viewBox="675.369 256.724 487 487" width="487pt" height="487pt"><defs><clipPath id="_clipPath_Q9RawghsYWrk9umuCfnMcXn8zB4pxtbs"><rect x="675.369" y="256.724" width="487" height="487"/></clipPath></defs><g clip-path="url(#_clipPath_Q9RawghsYWrk9umuCfnMcXn8zB4pxtbs)"><defs><filter id="OHYU9i1bZGi2El8dgq2bl6vVtwihkTPB" x="-200%" y="-200%" width="400%" height="400%" filterUnits="objectBoundingBox" color-interpolation-filters="sRGB"><feGaussianBlur xmlns="http://www.w3.org/2000/svg" in="SourceGraphic" stdDeviation="8.587218125678056"/><feOffset xmlns="http://www.w3.org/2000/svg" dx="0" dy="0" result="pf_100_offsetBlur"/><feFlood xmlns="http://www.w3.org/2000/svg" flood-color="#ABABE3" flood-opacity="0.42"/><feComposite xmlns="http://www.w3.org/2000/svg" in2="pf_100_offsetBlur" operator="in" result="pf_100_dropShadow"/><feBlend xmlns="http://www.w3.org/2000/svg" in="SourceGraphic" in2="pf_100_dropShadow" mode="normal"/></filter></defs><g filter="url(#OHYU9i1bZGi2El8dgq2bl6vVtwihkTPB)"><path d="M 766.62 282.72 L 1071.12 282.72 C 1107.132 282.72 1136.37 311.958 1136.37 347.97 L 1136.37 652.47 C 1136.37 688.482 1107.132 717.72 1071.12 717.72 L 766.62 717.72 C 730.608 717.72 701.37 688.482 701.37 652.47 L 701.37 347.97 C 701.37 311.958 730.608 282.72 766.62 282.72 Z" style="stroke:none;fill:#FFFFFF;stroke-miterlimit:10;"/><path d="M 766.62 282.72 L 1071.12 282.72 C 1107.132 282.72 1136.37 311.958 1136.37 347.97 L 1136.37 652.47 C 1136.37 688.482 1107.132 717.72 1071.12 717.72 L 766.62 717.72 C 730.608 717.72 701.37 688.482 701.37 652.47 L 701.37 347.97 C 701.37 311.958 730.608 282.72 766.62 282.72 Z" style="fill:none;stroke:#000000;stroke-width:2;stroke-linecap:square;stroke-miterlimit:2;"/></g><path d=" M 786.808 337.098 C 773.045 337.098 761.888 348.255 761.888 362.018 L 761.888 461.699 C 761.888 475.462 773.045 486.619 786.808 486.619 L 886.489 486.619 C 900.252 486.619 911.409 475.462 911.409 461.699 L 911.409 362.018 C 911.409 348.255 900.252 337.098 886.489 337.098 L 786.808 337.098 Z  M 961.249 337.098 C 947.486 337.098 936.329 348.255 936.329 362.018 L 936.329 461.699 C 936.329 475.462 947.486 486.619 961.249 486.619 L 1060.93 486.619 C 1074.693 486.619 1085.85 475.462 1085.85 461.699 L 1085.85 362.018 C 1085.85 348.255 1074.693 337.098 1060.93 337.098 L 961.249 337.098 Z  M 824.188 362.018 L 849.108 362.018 L 849.108 399.399 L 886.489 399.399 L 886.489 424.319 L 849.108 424.319 L 849.108 461.699 L 824.188 461.699 L 824.188 424.319 L 786.808 424.319 L 786.808 399.399 L 824.188 399.399 L 824.188 362.018 Z  M 961.249 399.399 L 1060.93 399.399 L 1060.93 424.319 L 961.249 424.319 L 961.249 399.399 Z  M 786.808 511.539 C 773.045 511.539 761.888 522.697 761.888 536.46 L 761.888 636.14 C 761.888 649.904 773.045 661.061 786.808 661.061 L 886.489 661.061 C 900.252 661.061 911.409 649.904 911.409 636.14 L 911.409 536.46 C 911.409 522.697 900.252 511.539 886.489 511.539 L 786.808 511.539 Z  M 961.249 511.539 C 947.486 511.539 936.329 522.697 936.329 536.46 L 936.329 636.14 C 936.329 649.904 947.486 661.061 961.249 661.061 L 1060.93 661.061 C 1074.693 661.061 1085.85 649.904 1085.85 636.14 L 1085.85 536.46 C 1085.85 522.697 1074.693 511.539 1060.93 511.539 L 961.249 511.539 Z  M 810.171 542.303 L 836.648 568.781 L 863.126 542.303 L 880.645 559.822 L 854.167 586.3 L 880.645 612.778 L 863.126 630.297 L 836.648 603.819 L 810.171 630.297 L 792.652 612.778 L 819.129 586.3 L 792.652 559.822 L 810.171 542.303 Z  M 961.249 548.92 L 1060.93 548.92 L 1060.93 573.84 L 961.249 573.84 L 961.249 548.92 Z  M 961.249 598.76 L 1060.93 598.76 L 1060.93 623.68 L 961.249 623.68 L 961.249 598.76 Z " fill="rgb(146,189,127)"/><linearGradient id="_lgradient_0" x1="-0.12817546028634608" y1="-0.00956283457603635" x2="0.9460224534110675" y2="0.8917756447332872" gradientTransform="matrix(323.963,0,0,323.963,761.888,337.098)" gradientUnits="userSpaceOnUse"><stop offset="0%" stop-opacity="0" style="stop-color:rgb(255,255,255)"/><stop offset="100%" stop-opacity="1" style="stop-color:rgb(65,65,136)"/></linearGradient><path d=" M 786.808 337.098 C 773.045 337.098 761.888 348.255 761.888 362.018 L 761.888 461.699 C 761.888 475.462 773.045 486.619 786.808 486.619 L 886.489 486.619 C 900.252 486.619 911.409 475.462 911.409 461.699 L 911.409 362.018 C 911.409 348.255 900.252 337.098 886.489 337.098 L 786.808 337.098 Z  M 961.249 337.098 C 947.486 337.098 936.329 348.255 936.329 362.018 L 936.329 461.699 C 936.329 475.462 947.486 486.619 961.249 486.619 L 1060.93 486.619 C 1074.693 486.619 1085.85 475.462 1085.85 461.699 L 1085.85 362.018 C 1085.85 348.255 1074.693 337.098 1060.93 337.098 L 961.249 337.098 Z  M 824.188 362.018 L 849.108 362.018 L 849.108 399.399 L 886.489 399.399 L 886.489 424.319 L 849.108 424.319 L 849.108 461.699 L 824.188 461.699 L 824.188 424.319 L 786.808 424.319 L 786.808 399.399 L 824.188 399.399 L 824.188 362.018 Z  M 961.249 399.399 L 1060.93 399.399 L 1060.93 424.319 L 961.249 424.319 L 961.249 399.399 Z  M 786.808 511.539 C 773.045 511.539 761.888 522.697 761.888 536.46 L 761.888 636.14 C 761.888 649.904 773.045 661.061 786.808 661.061 L 886.489 661.061 C 900.252 661.061 911.409 649.904 911.409 636.14 L 911.409 536.46 C 911.409 522.697 900.252 511.539 886.489 511.539 L 786.808 511.539 Z  M 961.249 511.539 C 947.486 511.539 936.329 522.697 936.329 536.46 L 936.329 636.14 C 936.329 649.904 947.486 661.061 961.249 661.061 L 1060.93 661.061 C 1074.693 661.061 1085.85 649.904 1085.85 636.14 L 1085.85 536.46 C 1085.85 522.697 1074.693 511.539 1060.93 511.539 L 961.249 511.539 Z  M 810.171 542.303 L 836.648 568.781 L 863.126 542.303 L 880.645 559.822 L 854.167 586.3 L 880.645 612.778 L 863.126 630.297 L 836.648 603.819 L 810.171 630.297 L 792.652 612.778 L 819.129 586.3 L 792.652 559.822 L 810.171 542.303 Z  M 961.249 548.92 L 1060.93 548.92 L 1060.93 573.84 L 961.249 573.84 L 961.249 548.92 Z  M 961.249 598.76 L 1060.93 598.76 L 1060.93 623.68 L 961.249 623.68 L 961.249 598.76 Z " fill="url(#_lgradient_0)"/></g></svg>